<mxfile host="app.diagrams.net" modified="2021-05-25T18:21:14.545Z" agent="5.0 (Windows NT 10.0; Win64; x64) AppleWebKit/537.36 (KHTML, like Gecko) Chrome/90.0.4430.212 Safari/537.36" etag="ii03jNempeoqujZl_oyN" version="14.6.13" type="github">
  <diagram id="EAt1vtjLYjhfnhTEwezc" name="Page-1">
    <mxGraphModel dx="1038" dy="580" grid="1" gridSize="10" guides="1" tooltips="1" connect="1" arrows="1" fold="1" page="1" pageScale="1" pageWidth="850" pageHeight="1100" math="0" shadow="0">
      <root>
        <mxCell id="0" />
        <mxCell id="1" parent="0" />
        <mxCell id="wiSNcTn-e-64FqyJuShd-2" value="&lt;font style=&quot;font-size: 14px&quot;&gt;React app&lt;/font&gt;" style="whiteSpace=wrap;html=1;aspect=fixed;" vertex="1" parent="1">
          <mxGeometry x="140" y="162.75" width="90" height="90" as="geometry" />
        </mxCell>
        <mxCell id="wiSNcTn-e-64FqyJuShd-5" value="&lt;font style=&quot;font-size: 14px&quot;&gt;express&lt;br&gt;(api 서버)&lt;br&gt;&lt;/font&gt;" style="whiteSpace=wrap;html=1;aspect=fixed;" vertex="1" parent="1">
          <mxGeometry x="360" y="162.75" width="90" height="90" as="geometry" />
        </mxCell>
        <mxCell id="wiSNcTn-e-64FqyJuShd-8" value="" style="rounded=1;arcSize=10;dashed=0;fillColor=none;gradientColor=none;strokeWidth=2;" vertex="1" parent="1">
          <mxGeometry x="560" y="141.88" width="150" height="131.75" as="geometry" />
        </mxCell>
        <mxCell id="wiSNcTn-e-64FqyJuShd-9" value="" style="dashed=0;html=1;shape=mxgraph.aws3.cloud;fillColor=#F58536;gradientColor=none;dashed=0;" vertex="1" parent="1">
          <mxGeometry x="580" y="117.76" width="52" height="36" as="geometry" />
        </mxCell>
        <mxCell id="wiSNcTn-e-64FqyJuShd-10" value="" style="outlineConnect=0;dashed=0;verticalLabelPosition=bottom;verticalAlign=top;align=center;html=1;shape=mxgraph.aws3.mysql_db_instance;fillColor=#2E73B8;gradientColor=none;" vertex="1" parent="1">
          <mxGeometry x="600" y="175.5" width="60" height="64.5" as="geometry" />
        </mxCell>
        <mxCell id="wiSNcTn-e-64FqyJuShd-13" value="" style="points=[[0.35,0,0],[0.98,0.51,0],[1,0.71,0],[0.67,1,0],[0,0.795,0],[0,0.65,0]];verticalLabelPosition=bottom;html=1;verticalAlign=top;aspect=fixed;align=center;pointerEvents=1;shape=mxgraph.cisco19.user;fillColor=#005073;strokeColor=none;" vertex="1" parent="1">
          <mxGeometry x="160" y="72" width="54" height="54" as="geometry" />
        </mxCell>
        <mxCell id="wiSNcTn-e-64FqyJuShd-14" value="" style="endArrow=classic;html=1;exitX=0.437;exitY=0.989;exitDx=0;exitDy=0;exitPerimeter=0;entryX=0.5;entryY=0;entryDx=0;entryDy=0;" edge="1" parent="1" source="wiSNcTn-e-64FqyJuShd-13" target="wiSNcTn-e-64FqyJuShd-2">
          <mxGeometry width="50" height="50" relative="1" as="geometry">
            <mxPoint x="330" y="220" as="sourcePoint" />
            <mxPoint x="165" y="163" as="targetPoint" />
          </mxGeometry>
        </mxCell>
        <mxCell id="wiSNcTn-e-64FqyJuShd-22" value="" style="rounded=1;arcSize=10;dashed=0;fillColor=none;gradientColor=none;strokeWidth=2;" vertex="1" parent="1">
          <mxGeometry x="330" y="141.88" width="150" height="128.12" as="geometry" />
        </mxCell>
        <mxCell id="wiSNcTn-e-64FqyJuShd-24" value="" style="shape=image;verticalLabelPosition=bottom;labelBackgroundColor=#ffffff;verticalAlign=top;aspect=fixed;imageAspect=0;image=data:image/png,iVBORw0KGgoAAAANSUhEUgAAAFIAAABNCAYAAAA1rDPVAAAYuElEQVR4Ae2cB1cU2daG73+6d3RGRwkiEkyIARElNzRNNzmDqChBaHLONHRuaDCBggQlmZEsYZQkKkkBQUzvt/bpwTGAoELPfK6ptfYqLKt27fOefULVebr+g3+3NVHgP2vi5V8n+FfINUqCf6SQ79+/x9u37/DmzVu2f/fu/RoVd/3c/OOEJNHGx6dRU92B/LwaXLxwFyMjk3jz5t36qbAGnv8xQlIWzs8voKXlEaSSepyNOo/jIcU4c7oUuTk1aGjoxszMPP6p2fmPEHJh4TUGB8dQVXUfqSlXcCJUjQD/YgT4l7B9SHAJYoWXcK7sFnp7R5ng7/9hrf1vFZKa69jYC9y+3Q+puB5hJ9Xw91XC10cFPx8F/HzkbK/5twpBgUrkZlejvr4bjx9P4vXrt2vQKNfGxd8m5NzcAh49eoorFS0QxlyEr7cUPl5y+Hqr4OcrQ9gpBWKjSxB+WokAfxl8vYvh462Al7sYYSdLoC6+gZ4HI5iZmcM/ITu1KiT1g5RF09NzaL0/gJysavj5SOHhJoGPZzG8PSgDxYiNKUVF+Q20tz5AXe1dpCZfRKCfGN4eUvh6qeHhJoU7vxBxwotoaurB1NQsFhbegPz/XZtWhFyczlAW9vc/gUzagOPBcni4ieHhJoenuxxeHkU4GSqHSlmH9vY+TE5O4dWrBUxPT6OvbwDl5c2IOK2Cl4eIne/proC7QMyEz0irREf7EGZn59l06e8QdN2FpFH21avXePJkClcutyD8tBoeAhHc+VK4C2Rw5xexbMvKrMCNG20YHX2G+flXePdOM90hUWgwGh+fRHt7D8SF1QgJksCdL2LXewjkcHMVIThABqWiEUNDY5ib++t6bWXougpJIk5OzOBGUw9SEivg61kEd1cJ3Hgy8LlF8HIvRHzsOVReuYX+vkHMzMzizZsvm6gmo99ifn4ew0OjaGy8j4y0cvh6FcGVK4LARQZ3Vxm8BIWIPKPG1cpWPBmdwlstzj3XVcinT57jnPo2zpxSw9NNAgFPBldnMZwd8uDtLkJG2iU0NbXjyZMxJtJiFi6XRZrsXMDk5HO0tfWhSHQVAT5FcLLPBY9TCAGPslOM0CAlCvPr0N/3ZDlXa3583YSkfr+vdxSJ8RXguxRB4KKEu2spBC4KODvmw5Wbi5ioUtTWtGJ0dII1/5X6Nvp/emycmprBnTu9SEsuh4CXy4R05crgwS+FG08FvosEJ0KKcfNG75oLtpzDdRWyu2sY0ZEXwHOSwt21DB78c0xMvrMSXMdCeAjEiIk8B5WyCa2tA3jx/CUT6nNBqVLo2Xt+boFNyC9euIOk+HL4eEjg7CCCq5McbrzSP/2XQeCigr+PHPXXupYr95ofX18hO4cRFX4BLhw5BLyyT4zvXAKuoxQc+3w2laHMpb7t0cNnmJl59WH0pX52fv41Rken0NTwANmZ1fD2KALHPg/ODmK4Ohd/4pfuw+cWw89Ljut1P4mQXZ3DiDx9Ac721DeWwtW57DMrhQtHBY5tERysc+DBFyEvpxY3mnsx+ngSs7OvMD72gs05lYpm+HmJ4WCdDUcbEbiOSrg6LeWzDC6cYvi4y3G99icRsrNjGBFh58CxkcDFoQQujuovjY47FMPZXgEHaxHsj2XBz1OMwoJrqKvthErZjOOBcjhYZ8L+WB6c7OTgOhTDxZH8Le2Ta6+Et5sU12o717wJL+dwXZt2Z8cQzpwsg721GE52qlWYAo42Ytha5cLBJhsc+2w42GTB1ioHDtZFcLJTrMIHZbgcHnwJ6mo6liv3mh9fVyHpaeN0aClsrQrhaEMirc4cbGSwO1oImyN5sLMSwcFatupr6R4O1lK484pQW/0TCXnquBrWlgWwPyb/JrM7KsWifeu1tkfFEHALUXu1fc0zbzmH65uRbYM4GVyCY4fyYXtEpjWzsSwC30mEGhJSS+8x1lXI9rZBhAYW48iBPFhbSLRmxw4VgudYgJqqn0LI92hvHcTxABUOm+fA6mCR1uzIgQJw7fNRXdn2M2Tke7S1DiDEX4lDZlmw3C/Smh02z4OzXS6b4GvrFeU6Nu33aLs/gCBfOQ7szoCFWT4szAq0Yof25oBjnYOqK61ae3u+rkLSW/BAbznMTdNxcHceDu7O14od2JUNh2PZqLr8swjZMgB/LxnMjNOwf2eu1szcNAt2VlmovHz/J8nIlkfw85Bgz44U7DPOxj4T7ZiZcQZsLTNQWfGTCHn/3iP4uImx0yAJewwzsWdHllZst2EarC3ScaW85efISBps/D0lMNWPhem2JOw0SMOu7enYtT1jXYz879yWDFP9eNhapuHqzzHYaN6Qx0aV4cj+BOzeLoSxXhxM9KigqTDVT1tTM9FPgbFeAky3xeDQnjgEeBfiZnPPck90a3583UZtinRqchr111qRnnQBfKcsmBnHwFgvGkZb42C0NQlGOikw0kn9AaPrk2G0NQFGutHYbRgNuyPJiI0qQcWlG3j8eHzNBVvO4ZoKqVlTeccW6wkEeP36NZ4/n0Zf7yCuVNxCgrAUjsdSsNMgCoa/R2H7ZiG2/54Awy1JMNyS/I2WiO2b47B9cxSMdSNx2DwOEafkKC2pR0f7H5gY16yL0xoPwQO0X08Aa02EJAEpSKLFOjqG2Po18TlDQ+MgKIAW+p8/f4EH3Y9YQcNPyWB3JAkmepHY9huZENs2JcBgc+KKtm1zArZtioX+b1Ew3BIOy31xCPEXQVx4Fffv9WBiYoqtSNJa+LNnz3HrVh8uV7Tg1k2CDmY/LGEsl1nfe/yHhSQRX79+w6Cm2toOZGVeZSge8TwKeSPu3XuIyckZds7c3DyePh3HvTsPoJDU4ESgGJb74rFt0xnobIiA3sYY6P8aD/3flja9jULobIiEzi9hMDOOho9bLvKzL6OpoQ0jI08xO6tZPCPiort7BOfP3UZiQgVOh5Wyffmlu4z0oDWgzxfYvlfAxet+SEha2ZuYmGErgOqSmxAKL4EQvMCAYgQFFiPsVBkyM6+iqqoV/X2jDCkh0QkEGB4cRcP1VmSlXYK3IBfmJjHQ23gGW/8XAZ1fYqC7IRa6G+OY6fwixNb/RWLr/07DVD8SPId0xMeoUXX5Fh7+MYwXz6dZRRHRMTw8job6LogK6hARfo7FQfEEB5UgMuI8xOJ63LzZxxbTqMmv1fZdQlIzplonVvHKZaIeqnDqRCljGf18lfD3VcDPVwF/XxUrQFTkeRSJrqGpsYehK9TUF6i5T02jv38YdTUtSI47BwEnE7sNz0J3wxls+W8Etvw3ku23/u8MjHQiwDmWgshTSlwuv4nurkcY/7MfpGZMIBVBqipFE6PbjoeoEeBHZNtH8fipEHpcjYT4CpwrvQV6zUfXUUL86PbNQlJGjQxPoKnxAUT51xB++hwC/JQMuSPxwk6qEC8sQ3SkGseDiXVUMAsJVEEYQ7DobXR0DH5o7jQgvXgxg76eQZZh0eHFcLROhem2SOhuPIUdW8/g6KEEnAiU4HxpAzrb+xlpQeK9ffuWYX39/aMs65MSLyM0uJgxlYQABgUoEXmmBPGxZYgML0GAn4LFSQzmqVA1MtOvovpqG/744wlevnz1Q8191UJSrRGO19MzgmJlM6IiyhDgq4CPpwLennL4+8oQFamGSnkNzY2tqK66g5zsKzh1QgVfbxm8PRXw8VIgOEiJ9NRK1NV1YHh4ggFPJMjrhdeYnHiOB90Pca60AWEhEjjbpCDQKx9ScTVa7/fg2bMJlsmEtmjAqmncvtWHgrxahIao4OMth7enEj5eMoQEKZCSdBHlF2/gZlMbyi82Iz7uPAL9KRZNPASznj6pRmFBHe7d/ePPyn37XU9DKwpJnTL1JUTWEsedEH8RQQFyeLnL4OlGOJ4UwYFSpCZfQk3NXQw8GsGLF9MYG5tgfI66pB7RUaXw85HAw13GMD4qaNipEkjE9WhvG8CLFzRIvGMEGmUoCdbR1ofmxja03HuAxyNP8eqVhjCjboVBqg+fokx9CxHh5FvjlxBBby8xTp9SQlxUjVu3OhndNv1ihu2bm9uRn1eFE8dJcAk83WTwdJexJDgbVQYajGimQSz7ShzS513BV4WkuRdlITXFosJrCA1RMhiKAnbji+HtKUZ0lJpNadraehl6R5lC4lOWvXw5h8HBUTQ1tqKwoAqhwXJGVbgLpKwQft5SCKPPgxAUKgD1nVQAupb+JvqMBCRCjY5Tt0IzgNqadiQnliPAl/wQqErxFMHPW8wotZrqO+jvH2RdxuL8kXzQnLan5xEuV9xEcsIF+PtK2HUeAkoKKUuQzPRK3LjRw35ZQfdb7ei+rJA0oX74x1OUldxkqJyvF91UBoGLGAKeCCdCFIwGa26mJvoUc3NzTICPa0qTzTQpf8Em5VVXbiMx/jx8vAiqKoTAhbJCiiB/OWN5Gq53Y2qJuR75oSxsbXmEzLRKHA8iBFoKN56U4YHEW0acKcb5skZ0dCxOxr9kJKkyqGIo41vu9aBYdZ31nR6CQubHzVXKqOCwEypICq+jvXWADaqrEXNJIakWG+ofID3lCoL9FXBzlUDgIoULJx8CXj6E0WpUlN9Ez4MBTE29YP3Vcjej45RhlF00h7xzp5tVAGWnKzcfPCfC8aTwFEhx5mQJ5JIGDDwa+2QknRifwYWy24iOKIOXmwRUYFfnInA5eX9m4SU01LeyuSS1Aor/a/FQdk5Pz+LRw8eoq21Beuol+HgUMn98rpiV199bjgThJVyuuI/JidmP82PJv5cUkuZjWRlV8BRQ5hDEWQI312JwOQXgcrIQHqbA1aq7eDwy9lURP74j9W0vX86jq2sAooKr8PehwHPg6izR+OepWIZSc719q5/1y4vXE1h14rgSApciuBEeyFeDz5XD2TEX7vxcJCWex507PZiefsm6gJXWaUhkEnt8/DmamzqRnHgeApccODvmMeyQykv4oQdfzDj1gUfPFkNZdv+lkO/B6K+YqHPgccRwd1VrcDk+UV4qhuO58USIOXuO/bJgcbD4WvAU9NMnU2hs6EZ+bjVCAuVwdRKBxyH4tJj5J+TPjVcCnnMe6q9349WrvybLPQ9G4cbPZ7ieB5/wwPMsLp6TDFxHEXw8xUhLqUBV5X0MDWoqd9kSA6ybIHazovwe62t9PcXgEh7orGDY4SJ+6OosxanQYsZ5fs0f/d8XQpIg9Ah1NrwMXEcq6Gc4HleD43E5Ini6FSGe0r+8BX29X87FqJ8dG5tGy71HUMqbcOq4Cq7cAnAdi8BzUoLvov7Uv4saXIc8XK/rZOApC/492M9A+M554LuUfHo+rxQ8ZxVcHCVwcSqAn7cEorw6NDf14PHI5CeVQVnInnyGxnGttguZaVXw96HuiuKR/IkHln7in3DEE8HF6O0ZXUnH5YRcQNTpUjjZEX9I6NznpmY4npM9wVF58BSIkJpMMH0vnj19zipiZnqOPddeunAXEadLwePkw9E2H84OcvCcSpbwSfdQw8kulxWUCk0bVeyD7sfgcXK/eh1hfhxbEVuGDQmQQyFrBEFcz6dmmYD0BEPLwzT7oNHd2Z7ItkKGB/Kc1EvGw7WXITRQhd4Hj79TyLkFRISpwbEpAs+xZFlzcSQcT854RQfrLAbby2UNaG8fRP31LjYSC1zyGfvIsaXmo1rWF92H/Dna5DCc73MhuQ45cHFQfv16h2I42UnhYJ0LOj88TM3e/HR20hup+2ym4WiTBQfrfDjZyeCyQjxOthK2Lt/zI0JSEHbHRHCyL17Z7JRwtCXoKQ8ONplwcc6Bk2M27K3JRHC0lcPJXrWyH3sVu4a4yM+FdHLIBoewvhXjUbHzCAO0O5YDjn0Wi4f2tkcJExSDY6fU4IEr+KJzg/wV+CEhz5wshq1VPji21GRWY4TsyTU4nmUuu9b+mIQd49gqVufDRgHbI5kMx/tYyO6uETjaZIJjI1udHxavBu+ztSqAjWUOaO/IrqdYVhcPoYWBvjI86B75vqZNk9+w0GIcO5wHh2PybzL7ozLYWUlgZyUF/f0t19P51pYZ7LfaHwvZ1TUCe+sM2B+VfJM/urc94YFWErb/lljoXJsjBfD3luFB1w8ISSOs1aFc2FmRMNoxWyspjlqko7qqA6/m/xpsujpHYHc0HbZHqIK0Ewvd55hFPnw9paAWsdK25PSHMvJksBJH9ufA5rBUa2ZtIcaRA2mormz/VMiOYdgcobXqIq3FQuW2OpAHH3cJujt/QMjQQDkO78vC0UNi7dnBIhw2T8HVyjY2haIsoOkPQf3HDqfA6mCh9mI5JIaleQ68BEWgX2estC2bkccDZDi0NwNHDhRqzSz3F8BiX9KSQh61SIbl/nytxULltjDLgie/8MeEDPGT4sDuNBw2K8Dhfdoxi335OLQngVFk9HT1ISPbh2B1IBEWZrlai4XKfHBPBjx4InR1/EBGBvlKYG6aikN7qHDaMUL/9u9KQOXl1k+aNv06wnJ/Ag7uztVaLFTm/TvT4cYtYE9I39e0Xy4g0EcMM+MUHNiViwO78rRi+3fmwNw0HpUVnwnZNgQLswTs35mt1Xj2maRD4JyPzvahlXRc+ll77uUCAryLsNcoCeam2TA3pQJqwUyyYWYcyyiyj5s2rfYd3BuLfcZZWo1nr1Eq+E55Pyakn2chdm1PwF6jTOw1ytKCZWLvjgzs2SHE5UstnzRtgvoP7I7FHsN0rcazyzAJPMcc9pmHlVJy6VGbMtJLDNNtQuw0SFlXFO8D4seQvCTsNYrBlfL7nwrZNoRDe2Jhqp+IXQap64IEfoiDIYfp2GlAS8JxcHXM/b6MJOWpWcVEqGFhFodd24Uw0Y8HYXN/oXjpMNVfCyO0LxUmekkw0Y/FHqNY2FuloL6u65N3ifTSgM/JgplJLEz0hTDRS/wIDVyLOBZ9pLFymugnYKdBLA7sisNxf8n3vdglIemN9tXKuxBGFcPZLg27d0TDWDcGRjrxMNZNhrFu6pqYkQ6hfXEw0Y/GgV1C+HrmIzfrMvr7HrMYFpsTwVAySS1OBEtgYUbQajSMdIQw0kmEsW7KmsRCfox0CA8UYpdhNGwtk3E6VIYydSPGxp4vhrLs/oumTWfS22Ram+7ueohiRR1OBIk19Jh+JAy3xMDw9/gPKN6OLcnYsSVllUboHiF8CTD8PRY7dM7C3DQGfE4GYs+WoK7mHkaGn7CVvo8Xr2ixitbJ797uQmrSeXjzc3BojxA7dAgPFGr8bUnCt8fyUTxbhDDWjcIR8zgEeBWgIPcK7t7pZvel+6+0LSnkopgLC5oPcXR1/gGVrA7+XvmwNI/Fjq0R2LbpLMPrDDYnYPvmpFWZwaZ4bPstBgabIrHH8Cw41imIjlCh6vJtDA48xuwscThLf6aLhCWa7dmzcdxobEdq4nm4cjJgbhoNg80R2PZbNAw2ES+5ylgIIdwUh22bomG4JRL7d8bA3SULuZkVuHurC8+eEihAH7VbHRe0rJCLYtLqH60Fjz2bYPyhKO8KfAQ0MSZINAK6GyOh+6sQer/FQf+3hCUsHnq/ElUWDd0NEYwmc7BKRmSYAhfPN6G3Z5At3FOtf5yFS2UA/T8VbHbmJYaGnqC25h4SY0vBs09jFaO7MRy6G89C79dY6DE08Mt46Ljer0LobozCtk0R2GcczVoEVQwt6RLVQUu6dJ+V4vk4xq8KuXgiOaRMoYygptdU34aMlAtw52axQPR/JRwvEjobYj6geAzJ2xALnV/OQueXcAaFUrOhbkKtus6QlIlxWqD6djyE4nnz+g3D+fp7B1FZcRNnzyhhZ5kEY51w6GwIx9ZfoqC7gQTToIGaeISa4xvPYJdBJJxsUhkmXfknHjg9PbPkd4cWdfjaflVCLjqgAjCceWoavb2DuFp1BwkxpXC2ScUewyjobiQcjzjGs39aBAx/j2DZSwxkUX4V7tzqwuORZ3g5O4e3X1nIX7zncnuKhbKGvlo19mwS7a19OKduQLBvIaz2xzMMkCpwy3+jWCy0p3+b6EXA9nAiwk/IPpAZY2PfV6Efx/ZNQi5eSAWgTCLMuL2tj+F2lBHWFomsAFt/CYP+r6cZVevGzUZGykXUVN1lZMPMDAFTKzfjxXuttP+4tYyOjjF6tyi/Ev5e9NIhFgabqbWEwWBzOJvOhfgXMlr49s0uPBnVfLiJWhv5+ZHtu4RcvKEmI+bx7KmGpZFJahDoI8LRA3EsS4WR9OuCm+ihfnDqBcvmHw148d6f75mgb95idmYWAwOPca3uPtKTL8LNORNW++Pg5pyFnMwKNDe2Y2RYg0mvhYCLcfyQkItONBn6CpQRjQ1tKC2+zn6e0d6mgUKpO1gvARdjWNzTfSjjCa/u6x1CdeUdqFXX2P7hw5EPsNdax7MmQi4WQjMgzbFPFVJBaLQnkf+OjYSiCqQpFX06kUB9wvTWa1tTIdcryP8Pfv8Vco1q6V8h10jI/wPtYHme8o3vPQAAAABJRU5ErkJggg==;" vertex="1" parent="1">
          <mxGeometry x="350" y="117.75999999999999" width="42.59" height="40" as="geometry" />
        </mxCell>
        <mxCell id="wiSNcTn-e-64FqyJuShd-25" value="&lt;font style=&quot;font-size: 14px&quot;&gt;heroku cloud&lt;/font&gt;" style="text;html=1;strokeColor=none;fillColor=none;align=center;verticalAlign=middle;whiteSpace=wrap;rounded=0;" vertex="1" parent="1">
          <mxGeometry x="367.5" y="280" width="82.5" height="20" as="geometry" />
        </mxCell>
        <mxCell id="wiSNcTn-e-64FqyJuShd-27" value="" style="endArrow=classic;html=1;entryX=-0.005;entryY=0.383;entryDx=0;entryDy=0;entryPerimeter=0;" edge="1" parent="1" target="wiSNcTn-e-64FqyJuShd-22">
          <mxGeometry width="50" height="50" relative="1" as="geometry">
            <mxPoint x="230" y="191.88" as="sourcePoint" />
            <mxPoint x="280" y="141.88" as="targetPoint" />
            <Array as="points">
              <mxPoint x="290" y="191" />
            </Array>
          </mxGeometry>
        </mxCell>
        <mxCell id="wiSNcTn-e-64FqyJuShd-28" value="" style="endArrow=classic;html=1;entryX=1;entryY=0.75;entryDx=0;entryDy=0;" edge="1" parent="1" target="wiSNcTn-e-64FqyJuShd-22">
          <mxGeometry width="50" height="50" relative="1" as="geometry">
            <mxPoint x="560" y="240" as="sourcePoint" />
            <mxPoint x="610" y="190" as="targetPoint" />
          </mxGeometry>
        </mxCell>
        <mxCell id="wiSNcTn-e-64FqyJuShd-30" value="" style="endArrow=classic;html=1;entryX=-0.013;entryY=0.373;entryDx=0;entryDy=0;entryPerimeter=0;" edge="1" parent="1" target="wiSNcTn-e-64FqyJuShd-8">
          <mxGeometry width="50" height="50" relative="1" as="geometry">
            <mxPoint x="480" y="191.88" as="sourcePoint" />
            <mxPoint x="530" y="141.88" as="targetPoint" />
          </mxGeometry>
        </mxCell>
        <mxCell id="wiSNcTn-e-64FqyJuShd-31" value="" style="endArrow=classic;html=1;" edge="1" parent="1">
          <mxGeometry width="50" height="50" relative="1" as="geometry">
            <mxPoint x="330" y="230" as="sourcePoint" />
            <mxPoint x="230" y="230" as="targetPoint" />
          </mxGeometry>
        </mxCell>
        <mxCell id="wiSNcTn-e-64FqyJuShd-32" value="user" style="text;html=1;strokeColor=none;fillColor=none;align=center;verticalAlign=middle;whiteSpace=wrap;rounded=0;" vertex="1" parent="1">
          <mxGeometry x="160" y="52" width="40" height="20" as="geometry" />
        </mxCell>
      </root>
    </mxGraphModel>
  </diagram>
</mxfile>
